<?xml version="1.0" standalone="no"?>
<!DOCTYPE svg PUBLIC "-//W3C//DTD SVG 20010904//EN"
 "http://www.w3.org/TR/2001/REC-SVG-20010904/DTD/svg10.dtd">
<svg version="1.0" xmlns="http://www.w3.org/2000/svg"
 width="260.000000pt" height="260.000000pt" viewBox="0 0 260.000000 260.000000"
 preserveAspectRatio="xMidYMid meet">
<metadata>
Created by potrace 1.11, written by Peter Selinger 2001-2013
</metadata>
<g transform="translate(0.000000,260.000000) scale(0.100000,-0.100000)"
fill="#000000" stroke="none">
<path d="M1 2584 c0 -11 3 -14 6 -6 3 7 2 16 -1 19 -3 4 -6 -2 -5 -13z"/>
<path d="M20 2576 c-12 -33 -13 -53 -1 -60 8 -5 24 75 16 83 -3 2 -9 -8 -15
-23z"/>
<path d="M443 2569 c7 -17 25 -45 40 -62 28 -31 28 -32 23 -6 -12 55 -36 99
-55 99 -17 0 -18 -3 -8 -31z"/>
<path d="M2218 2583 c-8 -10 -18 -27 -22 -38 -5 -14 1 -11 18 10 23 27 32 45
23 45 -2 0 -11 -8 -19 -17z"/>
<path d="M2293 2557 c-48 -48 -93 -112 -93 -131 0 -8 -7 -30 -15 -49 -25 -61
-14 -80 18 -29 16 26 17 22 10 -124 -7 -170 -2 -204 27 -204 21 0 27 15 10 25
-5 3 -10 35 -10 71 0 62 1 64 26 64 24 0 26 3 22 35 -2 19 0 35 4 35 5 0 4 9
-2 19 -16 30 -12 36 10 16 20 -18 21 -18 34 1 13 17 12 19 -10 22 -27 4 -31
23 -9 45 13 13 13 16 0 21 -9 3 -14 18 -13 41 1 39 15 56 24 30 4 -9 12 -14
19 -11 7 2 20 -5 29 -16 16 -19 16 -20 -3 -25 -26 -7 -27 -23 -2 -23 21 0 24
-30 4 -43 -7 -4 -13 -18 -13 -30 0 -13 6 -29 13 -36 10 -11 5 -13 -25 -8 -32
5 -38 3 -38 -13 0 -12 14 -25 40 -37 32 -15 41 -25 46 -53 10 -54 32 -90 54
-90 23 0 26 -10 8 -29 -11 -10 -8 -16 12 -32 24 -20 24 -20 3 -14 -13 4 -23 2
-23 -3 0 -5 -17 -6 -40 -2 -35 6 -40 5 -40 -11 0 -29 -20 -33 -46 -8 -27 26
-27 26 -46 -20 l-14 -34 -52 54 c-47 48 -52 57 -52 98 0 31 -3 41 -9 32 -7
-10 -11 0 -16 35 -8 64 -16 86 -22 62 -5 -19 -23 -25 -23 -7 0 5 -5 7 -11 3
-8 -4 -10 -27 -5 -68 l6 -61 -20 25 c-11 14 -54 94 -95 178 -46 95 -80 152
-87 150 -7 -3 -18 -36 -25 -74 -39 -213 -60 -294 -73 -294 -5 0 -7 18 -6 40 2
22 -1 43 -5 46 -5 3 -5 14 1 24 17 32 1 48 -58 61 -31 6 -67 16 -79 22 -21 9
-28 6 -51 -19 -59 -66 -102 -123 -102 -137 0 -20 55 -67 126 -107 32 -18 70
-42 84 -54 l25 -21 -20 24 c-18 23 -19 24 -2 18 10 -4 22 -7 27 -7 11 0 20
-39 10 -45 -4 -3 -6 -14 -3 -24 3 -13 -2 -21 -16 -26 -22 -7 -61 9 -61 25 0 6
-4 9 -8 7 -11 -3 -77 23 -137 54 l-51 26 19 -39 c17 -33 24 -38 53 -38 19 0
34 -5 34 -11 0 -8 -13 -10 -38 -6 -37 4 -40 3 -51 -28 -6 -18 -21 -45 -32 -59
-21 -27 -114 -86 -136 -86 -19 0 -93 83 -93 106 0 27 -6 32 -33 27 -13 -3 -33
-22 -47 -46 -26 -43 -154 -177 -169 -177 -5 0 -11 -9 -14 -21 -3 -12 -10 -18
-16 -14 -6 3 -11 1 -11 -4 0 -6 -7 -11 -15 -11 -8 0 -30 -14 -50 -31 l-36 -32
-29 28 c-20 19 -30 39 -30 57 0 36 32 100 77 156 19 23 33 42 31 42 -2 0 -28
-10 -58 -22 -47 -19 -75 -22 -185 -23 -122 0 -134 2 -195 29 -36 16 -74 37
-84 47 -20 18 -19 19 23 58 24 22 63 49 87 61 52 24 167 50 227 51 38 0 40 1
17 10 -14 6 -26 9 -26 7 -1 -2 -11 5 -21 15 -11 9 -23 14 -26 10 -4 -3 -13 1
-20 11 -7 9 -22 22 -33 29 -38 21 -179 107 -195 119 -38 27 -138 -22 -142 -69
-1 -13 -4 -23 -8 -23 -3 0 -35 30 -69 68 -35 37 -60 61 -56 55 4 -8 2 -13 -4
-13 -7 0 -9 7 -6 16 7 19 -21 57 -35 48 -17 -10 -9 5 16 32 l25 27 32 -29 c61
-56 67 -63 83 -88 21 -31 33 -33 31 -6 -1 28 -81 115 -122 135 -26 12 -39 13
-54 5 -11 -6 -20 -7 -20 -3 0 4 -5 1 -10 -7 -8 -13 -11 -12 -24 5 -14 18 -15
15 -15 -50 l0 -70 69 -75 c57 -62 66 -76 52 -82 -26 -10 -32 -9 -32 5 0 6 -20
35 -45 62 l-44 50 -1 -53 c0 -29 5 -63 11 -74 8 -15 8 -19 0 -14 -7 5 -11 -6
-11 -33 0 -29 4 -41 14 -41 8 0 18 -5 22 -11 4 -8 0 -9 -15 -4 -20 6 -21 4
-21 -85 0 -77 3 -97 21 -121 20 -29 14 -40 -9 -17 -10 10 -12 -90 -10 -457 l3
-470 28 1 c15 1 27 -2 27 -7 0 -4 9 -11 20 -14 32 -10 24 -20 -27 -36 -35 -11
-49 -21 -51 -36 -3 -17 1 -20 25 -15 15 2 34 9 41 15 8 6 12 6 12 -3 0 -10 3
-10 15 0 26 21 214 16 325 -10 52 -11 129 -22 171 -23 42 -1 75 -5 72 -10 -8
-13 -193 -8 -246 8 -83 24 -194 32 -267 19 -58 -10 -61 -12 -25 -13 l40 -2
-50 -15 c-27 -8 -65 -17 -82 -20 -38 -8 -45 -37 -13 -54 16 -9 18 -8 14 5 -4
8 -11 15 -17 15 -22 0 8 17 41 24 21 3 31 2 27 -4 -3 -6 -15 -10 -26 -10 -10
0 -19 -4 -19 -8 0 -5 13 -7 30 -4 31 4 42 -11 14 -22 -21 -8 -10 -22 24 -29
19 -4 28 -12 29 -26 1 -12 -4 -21 -13 -21 -8 0 -14 -6 -14 -13 0 -8 -11 -19
-25 -25 -27 -12 -33 -28 -12 -35 9 -3 9 -7 1 -18 -6 -8 -10 -24 -9 -37 2 -28
-8 -28 -36 1 -20 20 -21 21 -11 1 12 -23 42 -51 42 -39 0 4 7 2 15 -5 8 -7 13
-16 10 -20 -5 -9 67 -87 105 -113 l25 -18 -25 12 c-14 6 -40 25 -57 42 -21 19
-33 26 -33 17 0 -8 -23 8 -50 35 -60 59 -66 56 -9 -6 22 -24 45 -55 52 -68 7
-13 18 -27 26 -29 11 -4 10 1 -2 19 -28 40 -19 44 18 8 72 -69 165 -163 165
-167 0 -2 -20 11 -45 29 -25 18 -47 30 -49 28 -3 -2 18 -21 46 -42 l51 -37
518 0 c484 0 518 1 522 17 4 17 5 17 6 1 1 -17 38 -18 626 -18 l625 0 0 469 0
469 -86 79 c-47 43 -98 86 -112 95 -44 28 -100 110 -121 179 -11 35 -16 65
-11 67 5 2 6 33 3 70 -3 39 0 77 6 92 9 21 10 16 5 -27 -7 -59 11 -130 57
-231 22 -49 49 -83 118 -150 49 -48 101 -97 116 -110 l27 -23 -6 383 c-3 211
-5 390 -6 398 -1 8 2 164 6 345 l7 330 -57 74 c-31 41 -56 78 -56 83 0 4 -35
8 -77 8 l-78 -1 -42 -42z m149 -39 c-7 -7 -12 -20 -12 -29 0 -23 -19 -34 -33
-20 -8 8 -5 15 12 27 18 13 20 18 10 25 -10 6 -7 9 11 9 19 0 21 -3 12 -12z
m-102 -18 c0 -5 -5 -10 -11 -10 -5 0 -7 5 -4 10 3 6 8 10 11 10 2 0 4 -4 4
-10z m-2276 -472 c8 -6 7 -8 -1 -8 -12 0 -54 70 -53 87 1 4 10 -10 22 -32 11
-22 26 -43 32 -47z m2046 -1 c0 -5 -4 -5 -10 -2 -5 3 -10 14 -10 23 0 15 2 15
10 2 5 -8 10 -19 10 -23z m-1948 -19 c-7 -7 -12 -8 -12 -2 0 14 12 26 19 19 2
-3 -1 -11 -7 -17z m-105 -30 c-3 -8 -6 -5 -6 6 -1 11 2 17 5 13 3 -3 4 -12 1
-19z m2279 -103 c7 -28 0 -55 -15 -55 -13 0 -42 60 -35 71 11 19 44 9 50 -16z
m-2236 -85 c0 -5 -2 -10 -4 -10 -3 0 -8 5 -11 10 -3 6 -1 10 4 10 6 0 11 -4
11 -10z m2316 -38 c-18 -16 -18 -16 -6 6 6 13 14 21 18 18 3 -4 -2 -14 -12
-24z m-2160 1 c-6 -16 -6 -16 11 0 18 15 19 15 19 -3 0 -10 -4 -17 -8 -14 -4
2 -11 -4 -17 -13 -7 -12 -10 -13 -11 -4 0 11 -3 11 -15 1 -20 -16 -19 -6 1 25
19 29 29 33 20 8z m79 -9 c-9 -15 -32 -52 -50 -83 -19 -31 -50 -78 -69 -106
-20 -27 -36 -55 -36 -61 0 -16 28 -25 36 -12 5 7 2 8 -6 3 -8 -5 -11 -4 -6 3
8 13 36 5 36 -11 0 -6 6 -18 14 -26 19 -21 38 -91 25 -91 -6 0 -20 11 -33 25
l-24 25 -17 -26 c-12 -19 -14 -29 -6 -37 19 -19 12 -27 -14 -17 -18 7 -23 6
-19 -3 13 -31 105 -83 236 -133 80 -31 201 -88 275 -130 72 -41 145 -76 161
-78 16 -3 41 -16 56 -31 16 -16 33 -24 42 -21 9 3 12 1 9 -4 -3 -6 0 -10 7
-11 8 0 9 -2 2 -5 -11 -4 -158 68 -355 175 -42 22 -134 64 -205 91 -214 85
-284 116 -315 144 -25 22 -28 30 -18 42 7 9 10 32 6 61 -6 52 5 85 41 125 13
14 41 54 61 87 21 33 41 58 44 55 4 -4 14 -1 24 7 15 12 16 12 10 -6 -7 -19
-6 -19 7 -2 12 15 85 75 95 76 2 1 -4 -11 -14 -25z m-260 -24 c3 -5 1 -10 -4
-10 -6 0 -11 5 -11 10 0 6 2 10 4 10 3 0 8 -4 11 -10z m2324 -44 c-11 -20 -30
-36 -44 -39 -32 -6 -32 7 0 21 14 7 30 23 37 37 6 13 15 22 19 19 4 -2 -1 -20
-12 -38z m-1748 14 c39 0 69 -4 69 -10 0 -6 -31 -10 -74 -10 -57 0 -77 4 -87
17 -12 15 -12 16 4 10 10 -4 50 -7 88 -7z m-85 -50 c21 0 17 -27 -5 -33 -11
-2 -24 0 -30 6 -14 14 -14 0 0 -42 6 -17 16 -31 22 -31 6 0 0 -11 -13 -25 -13
-14 -30 -25 -38 -25 -11 0 -13 -8 -9 -30 4 -16 2 -32 -3 -35 -5 -3 -7 -12 -3
-20 3 -10 -1 -15 -12 -15 -20 0 -15 -25 6 -26 28 -1 41 19 34 52 -4 25 -1 37
15 51 11 11 26 37 34 59 8 21 15 35 16 29 3 -21 9 -51 19 -95 7 -33 6 -55 -4
-84 -10 -27 -11 -45 -4 -58 12 -21 -11 -72 -37 -82 -9 -4 -18 -5 -18 -4 -14
24 -25 62 -21 67 4 3 15 -4 25 -16 l18 -22 5 36 c7 41 1 57 -19 49 -8 -3 -14
-1 -14 4 0 6 -9 5 -20 -2 -24 -15 -27 -70 -5 -88 8 -7 15 -18 15 -26 0 -10 -6
-11 -29 -3 -35 12 -63 50 -51 68 4 7 5 23 2 35 -5 19 -4 19 11 7 22 -17 22 -7
0 25 -11 17 -18 21 -23 13 -6 -8 -11 -5 -20 10 -13 25 -8 97 11 149 6 18 9 48
7 67 -3 28 0 35 13 35 11 0 21 -16 31 -52 l15 -53 13 45 c7 25 14 51 16 59 2
7 11 10 20 7 9 -3 22 -6 30 -6z m1020 -24 c16 -10 39 -28 51 -39 l23 -20 -34
-37 c-18 -21 -39 -54 -46 -74 -8 -27 -22 -42 -51 -56 l-39 -20 22 -26 c42 -48
88 -77 102 -65 22 18 33 -8 34 -80 0 -61 -1 -67 -26 -81 -15 -9 -47 -35 -71
-57 -37 -34 -59 -48 -91 -56 -41 -11 -63 -15 -104 -18 -46 -4 -53 -2 -90 34
-40 37 -45 59 -9 43 10 -4 25 -9 33 -10 8 -1 25 -5 38 -8 20 -4 21 -3 11 15
-6 12 -7 25 -1 32 4 7 9 21 10 32 1 11 3 29 4 40 3 16 -3 20 -29 19 -18 0 -31
2 -28 4 2 2 -2 10 -8 17 -8 9 -16 10 -24 3 -9 -7 -13 -7 -13 1 0 7 -4 9 -10 6
-5 -3 -15 -3 -22 1 -17 11 -58 11 -65 1 -3 -4 -16 -1 -30 8 -23 16 -25 16 -21
-2 2 -10 10 -17 16 -15 7 1 12 -7 12 -18 0 -14 -6 -20 -22 -19 -35 1 -64 14
-50 23 14 8 4 36 -13 36 -10 0 -14 28 -6 49 0 2 12 -4 26 -13 23 -15 25 -15
41 9 21 32 31 32 46 0 6 -14 15 -25 19 -25 8 0 53 69 55 85 1 6 2 14 3 19 0 6
8 1 17 -10 14 -18 15 -18 10 6 -3 14 -3 20 0 13 11 -24 44 9 44 44 0 24 5 33
17 33 9 0 13 3 10 7 -8 7 11 33 25 33 5 0 7 -4 3 -9 -3 -5 0 -13 6 -17 8 -5
10 4 7 29 -2 20 -1 35 2 35 25 -2 30 4 24 29 -6 23 -4 25 14 21 12 -3 21 -3
20 1 -3 15 15 60 22 56 5 -3 11 -2 13 2 10 15 94 7 123 -11z m735 -19 c-10 -9
-11 -8 -5 6 3 10 9 15 12 12 3 -3 0 -11 -7 -18z m68 -71 c13 -24 42 -67 67
-97 24 -29 46 -67 49 -83 4 -17 18 -64 31 -105 38 -110 23 -104 -36 16 -11 23
-25 45 -31 49 -6 3 -8 12 -5 19 2 7 -13 36 -34 64 -21 28 -46 74 -56 103 -9
29 -19 59 -22 66 -2 6 0 12 5 12 6 0 20 -20 32 -44z m-1725 -51 c-4 -8 -8 -15
-10 -15 -2 0 -4 7 -4 15 0 8 4 15 10 15 5 0 7 -7 4 -15z m1110 -77 c10 -59
-12 -68 -71 -30 -13 8 -23 23 -23 33 0 11 -6 19 -12 19 -9 0 -8 4 2 10 8 5 34
10 56 10 41 0 42 -1 48 -42z m450 -65 c19 -55 19 -53 6 -53 -12 0 -26 27 -33
68 -10 48 9 39 27 -15z m-1929 -23 c3 -5 2 -10 -4 -10 -5 0 -13 5 -16 10 -3 6
-2 10 4 10 5 0 13 -4 16 -10z m52 -32 c26 -24 30 -40 9 -32 -16 6 -51 54 -39
54 4 0 17 -10 30 -22z m1827 -32 c-6 -16 -34 -17 -34 0 0 13 20 24 32 17 4 -2
5 -9 2 -17z m-1559 -10 c-11 -8 -23 -12 -28 -9 -13 8 3 23 26 23 20 0 20 0 2
-14z m1428 -53 c-13 -2 -35 -2 -50 0 -16 2 -5 4 22 4 28 0 40 -2 28 -4z m152
-4 c25 -6 49 -17 56 -25 8 -10 3 -10 -20 2 -17 9 -62 19 -99 24 -54 6 -59 8
-24 9 24 0 63 -4 87 -10z m-335 -13 c0 -2 -7 -7 -16 -10 -8 -3 -12 -2 -9 4 6
10 25 14 25 6z m90 -16 c0 -5 -2 -10 -4 -10 -3 0 -8 5 -11 10 -3 6 -1 10 4 10
6 0 11 -4 11 -10z m-676 -47 c-17 -12 -19 -12 -22 2 -2 9 2 23 9 31 11 14 14
13 22 -2 7 -13 5 -21 -9 -31z m538 35 c-7 -7 -12 -42 -12 -89 0 -64 -4 -84
-26 -123 -14 -25 -33 -52 -43 -59 -9 -6 -27 -27 -40 -45 -12 -18 -37 -38 -54
-46 -34 -14 -156 -137 -188 -189 -10 -18 -19 -40 -19 -49 0 -9 -11 -39 -25
-66 -14 -28 -28 -65 -31 -84 -3 -18 -15 -71 -26 -117 -14 -58 -19 -107 -16
-159 3 -66 2 -71 -9 -46 -17 41 -16 77 8 185 11 52 23 110 26 129 3 19 19 61
34 92 16 32 29 64 29 72 0 38 138 203 195 233 31 16 113 99 142 142 9 14 17
51 19 83 4 91 20 148 42 148 3 0 1 -5 -6 -12z m528 -20 c10 -6 7 -7 -10 -2
-14 3 -32 11 -40 16 -10 6 -7 7 10 2 14 -3 32 -11 40 -16z m-443 -50 c-3 -8
-6 -5 -6 6 -1 11 2 17 5 13 3 -3 4 -12 1 -19z m476 -5 c-7 -2 -19 -2 -25 0 -7
3 -2 5 12 5 14 0 19 -2 13 -5z m-164 -46 c1 -5 -3 -5 -9 -2 -5 3 -10 16 -9 28
0 21 1 21 9 2 5 -11 9 -24 9 -28z m-183 -4 c-10 -10 -19 5 -10 18 6 11 8 11
12 0 2 -7 1 -15 -2 -18z m144 13 c0 -8 -7 -22 -16 -30 -14 -15 -13 -16 14 -16
16 0 50 12 76 26 46 26 46 26 46 4 0 -12 -4 -18 -10 -15 -5 3 -10 1 -10 -4 0
-18 32 -12 36 7 4 14 16 17 64 17 59 0 59 0 53 -27 -4 -23 -1 -29 21 -38 14
-5 26 -14 26 -20 0 -6 7 -4 16 5 15 14 18 14 33 0 10 -8 23 -15 29 -15 7 0 12
-11 12 -25 0 -19 -5 -25 -17 -23 -11 2 -19 -5 -21 -17 -7 -33 -22 -47 -38 -34
-9 7 -14 8 -14 1 0 -6 5 -12 11 -14 6 -2 3 -20 -9 -48 -16 -36 -21 -41 -27
-27 -4 9 -16 17 -26 17 -13 0 -19 7 -19 21 0 28 -19 61 -31 53 -5 -3 -30 -6
-54 -6 -50 0 -148 49 -160 80 -6 15 -9 13 -21 -10 -16 -31 -43 -48 -74 -48
-19 0 -21 4 -15 33 8 34 25 61 25 37 0 -22 14 -1 18 26 1 14 20 43 40 64 44
45 42 44 42 26z m-946 -6 c27 -10 35 -43 14 -56 -6 -4 -8 -3 -5 3 4 6 -5 15
-19 22 -21 9 -32 7 -66 -10 -44 -23 -198 -37 -198 -18 0 5 8 9 18 9 10 0 24 6
30 13 34 34 174 57 226 37z m689 -25 c-3 -9 -8 -14 -10 -11 -3 3 -2 9 2 15 9
16 15 13 8 -4z m552 -2 c-2 -10 -4 -20 -4 -22 -1 -3 -6 0 -12 6 -6 6 -8 16 -5
22 11 17 25 13 21 -6z m40 -3 c3 -5 1 -10 -4 -10 -6 0 -11 5 -11 10 0 6 2 10
4 10 3 0 8 -4 11 -10z m-1416 -96 c10 -9 -95 -3 -109 6 -9 6 6 7 45 3 33 -3
62 -7 64 -9z m-222 -14 c26 -6 82 -14 123 -19 l75 -8 -60 -1 c-33 -1 -96 7
-140 17 -83 20 -82 29 2 11z m1151 -50 c-7 -11 -19 -20 -27 -20 -11 0 -10 5 4
20 10 11 22 20 27 20 4 0 3 -9 -4 -20z m-412 -1 c3 -6 -1 -18 -10 -27 -15 -15
-17 -15 -33 1 -16 16 -16 19 -3 27 20 13 37 12 46 -1z m-1364 -34 c-12 -22
-27 -2 -18 22 5 12 10 13 17 6 7 -7 8 -17 1 -28z m208 5 c0 -5 -5 -10 -11 -10
-5 0 -7 5 -4 10 3 6 8 10 11 10 2 0 4 -4 4 -10z m2098 -19 c3 -8 -1 -12 -9 -9
-7 2 -15 10 -17 17 -3 8 1 12 9 9 7 -2 15 -10 17 -17z m-2458 -1 c0 -5 -5 -10
-11 -10 -5 0 -7 5 -4 10 3 6 8 10 11 10 2 0 4 -4 4 -10z m2410 -24 c0 -3 -4
-8 -10 -11 -5 -3 -10 -1 -10 4 0 6 5 11 10 11 6 0 10 -2 10 -4z m-33 -68 c-3
-8 -6 -5 -6 6 -1 11 2 17 5 13 3 -3 4 -12 1 -19z m-2246 -39 c-16 -6 -28 -6
-35 1 -7 7 1 10 25 9 32 0 33 -1 10 -10z m635 -26 c8 -41 -8 -155 -27 -197 -7
-14 -19 -26 -28 -26 -14 0 -14 2 -1 10 8 5 11 10 6 10 -5 0 -1 9 9 20 33 37 5
20 -35 -20 -22 -22 -45 -40 -51 -40 -7 0 -21 -7 -31 -17 -25 -23 -30 -13 -11
25 12 24 18 30 25 20 6 -10 12 -9 23 7 8 11 19 26 25 33 8 9 9 17 1 25 -5 7
-7 24 -4 36 6 23 7 23 20 6 12 -18 13 -17 13 6 0 14 -6 48 -14 77 -12 50 -12
52 5 47 11 -4 19 -2 19 4 0 6 11 11 25 11 20 0 25 -6 31 -37z m986 -35 c-7 -7
-12 -8 -12 -2 0 14 12 26 19 19 2 -3 -1 -11 -7 -17z m-1592 -38 c0 -5 -5 -10
-11 -10 -5 0 -7 5 -4 10 3 6 8 10 11 10 2 0 4 -4 4 -10z m370 -189 c0 -9 -33
-21 -59 -21 -11 0 -11 3 -1 15 13 16 60 21 60 6z m-15 -60 c47 -12 95 -35 92
-44 -1 -4 -17 -17 -35 -28 -26 -17 -32 -18 -32 -6 0 18 -47 50 -64 44 -6 -3
-17 -21 -23 -40 -10 -32 -8 -38 19 -71 25 -30 36 -36 69 -36 22 0 38 -4 35 -9
-8 -12 -55 -20 -62 -9 -3 4 -9 6 -15 3 -5 -3 -25 10 -44 30 -20 19 -41 35 -47
35 -17 0 -3 92 16 105 9 7 16 20 16 30 0 13 5 16 23 10 12 -4 36 -10 52 -14z
m955 -10 c0 -6 -4 -13 -10 -16 -5 -3 -10 1 -10 9 0 9 5 16 10 16 6 0 10 -4 10
-9z m-525 -132 c7 -11 -22 -38 -42 -39 -10 0 -10 6 -1 25 12 26 32 33 43 14z
m15 -48 c0 -5 -7 -11 -15 -15 -15 -5 -20 5 -8 17 9 10 23 9 23 -2z m480 -71
c0 -5 -2 -10 -4 -10 -3 0 -8 5 -11 10 -3 6 -1 10 4 10 6 0 11 -4 11 -10z"/>
<path d="M1278 1354 c-3 -5 -2 -18 2 -28 3 -11 9 -15 12 -10 3 5 2 18 -2 28
-3 11 -9 15 -12 10z"/>
<path d="M595 280 c3 -5 8 -10 11 -10 2 0 4 5 4 10 0 6 -5 10 -11 10 -5 0 -7
-4 -4 -10z"/>
<path d="M30 2471 c0 -5 5 -13 10 -16 6 -3 10 -2 10 4 0 5 -4 13 -10 16 -5 3
-10 2 -10 -4z"/>
<path d="M535 2410 c9 -30 13 -35 21 -27 3 3 -2 16 -11 29 l-17 23 7 -25z"/>
<path d="M40 2395 c0 -8 -9 -15 -20 -15 -11 0 -20 -7 -20 -15 0 -19 14 -19 34
1 15 14 22 44 11 44 -3 0 -5 -7 -5 -15z"/>
<path d="M1425 2051 c-3 -5 -1 -12 5 -16 5 -3 10 1 10 9 0 18 -6 21 -15 7z"/>
<path d="M1387 2005 c10 -13 24 -25 32 -25 10 0 7 8 -9 25 -30 32 -46 32 -23
0z"/>
<path d="M1450 2016 c0 -2 8 -10 18 -17 15 -13 16 -12 3 4 -13 16 -21 21 -21
13z"/>
<path d="M810 1918 c0 -9 5 -20 10 -23 13 -8 13 5 0 25 -8 13 -10 13 -10 -2z"/>
<path d="M1140 1900 c-19 -16 -32 -32 -28 -35 9 -9 58 13 64 30 12 31 -2 34
-36 5z"/>
<path d="M1001 1831 c-17 -11 -5 -31 19 -31 25 0 31 -21 12 -43 -25 -28 -8
-29 32 -2 20 14 42 25 47 25 24 0 0 24 -25 26 -15 0 -32 7 -37 15 -5 8 -9 10
-9 5 0 -5 -6 -4 -13 2 -7 6 -18 7 -26 3z"/>
<path d="M870 1785 c7 -8 16 -12 21 -9 16 9 10 20 -12 21 -17 2 -18 -1 -9 -12z"/>
<path d="M60 275 c19 -19 36 -35 39 -35 3 0 -10 16 -29 35 -19 19 -36 35 -39
35 -3 0 10 -16 29 -35z"/>
<path d="M0 221 c0 -8 10 -26 23 -40 l22 -26 -22 19 -23 19 0 -96 0 -97 71 0
c72 0 73 1 45 41 -6 8 1 2 15 -13 19 -21 35 -28 64 -28 l39 0 -59 55 c-33 30
-71 65 -85 77 -14 13 -39 41 -57 63 -18 22 -32 34 -33 26z m75 -113 c16 -24
22 -38 14 -31 -15 12 -53 73 -46 73 2 0 17 -19 32 -42z"/>
<path d="M120 140 c8 -5 20 -10 25 -10 6 0 3 5 -5 10 -8 5 -19 10 -25 10 -5 0
-3 -5 5 -10z"/>
<path d="M170 121 c0 -5 5 -13 10 -16 6 -3 10 -2 10 4 0 5 -4 13 -10 16 -5 3
-10 2 -10 -4z"/>
</g>
</svg>
